<?xml version="1.0" encoding="UTF-8" standalone="no"?>
<!-- Created with Inkscape (http://www.inkscape.org/) -->

<svg
   width="1000"
   height="1000"
   viewBox="0 0 264.58333 264.58333"
   version="1.1"
   id="svg1"
   inkscape:version="1.3 (0e150ed6c4, 2023-07-21)"
   sodipodi:docname="PinarSoft.svg"
   xmlns:inkscape="http://www.inkscape.org/namespaces/inkscape"
   xmlns:sodipodi="http://sodipodi.sourceforge.net/DTD/sodipodi-0.dtd"
   xmlns="http://www.w3.org/2000/svg"
   xmlns:svg="http://www.w3.org/2000/svg">
  <sodipodi:namedview
     id="namedview1"
     pagecolor="#ffffff"
     bordercolor="#3f3f3f"
     borderopacity="0.24705882"
     inkscape:showpageshadow="2"
     inkscape:pageopacity="0.0"
     inkscape:pagecheckerboard="0"
     inkscape:deskcolor="#d1d1d1"
     inkscape:document-units="mm"
     inkscape:zoom="0.72426347"
     inkscape:cx="396.26464"
     inkscape:cy="561.25984"
     inkscape:window-width="1920"
     inkscape:window-height="1009"
     inkscape:window-x="-8"
     inkscape:window-y="-8"
     inkscape:window-maximized="1"
     inkscape:current-layer="layer2" />
  <defs
     id="defs1" />
  <g
     inkscape:label="Capa 1"
     inkscape:groupmode="layer"
     id="layer1"
     style="display:none"
     sodipodi:insensitive="true">
    <path
       style="opacity:1;fill:#552200;fill-opacity:1;stroke-width:0.264583"
       d="m 92.789667,202.74907 c 0,0 3.653137,-12.42066 -0.730628,-27.39852 -4.383762,-14.97786 12.785981,-20.82288 12.785981,-20.82288 0,0 12.78597,10.95941 8.76752,43.83764 -4.01845,32.87823 -20.822873,4.38376 -20.822873,4.38376 z"
       id="path5" />
    <g
       id="g5"
       transform="matrix(0.53299495,0,0,0.85576923,37.48081,19.386212)"
       style="fill:#016500;fill-opacity:1">
      <path
         style="opacity:1;fill:#016500;fill-opacity:1;stroke-width:0.264583"
         d="m 59.91144,17.900369 c 0,0 7.306272,13.881918 -4.749078,40.549814 C 43.107011,85.118079 13.516605,99.365312 13.516605,99.365312 L 146.12546,59.180811 c 0,0 -69.044279,9.498156 -86.21402,-41.280442 z"
         id="path1" />
      <path
         style="opacity:1;fill:#016500;fill-opacity:1;stroke-width:0.326779"
         d="m 64.400874,30.321033 c 0,0 8.876215,17.430211 -5.769541,50.914564 C 43.985576,114.71996 8.0369007,132.60886 8.0369007,132.60886 L 169.14022,82.152977 c 0,0 -83.880239,11.92593 -104.739346,-51.831944 z"
         id="path2" />
      <path
         style="opacity:1;fill:#016500;fill-opacity:1;stroke-width:0.399423"
         d="m 69.710502,44.93358 c 0,0 11.15062,20.729501 -7.247903,60.55196 -18.398525,39.82248 -63.5585396,61.09749 -63.5585396,61.09749 L 201.28782,106.57657 c 0,0 -105.373359,14.18333 -131.577318,-61.64299 z"
         id="path3" />
      <path
         style="opacity:1;fill:#016500;fill-opacity:1;stroke-width:0.455873"
         d="m 74.91446,58.815499 c 0,0 11.855082,25.398308 -7.705803,74.189791 -19.560887,48.7915 -67.5739703,74.85818 -67.5739703,74.85818 0,0 72.1445273,-16.64843 107.1387933,-28.53476 36.93531,-12.54563 108.03096,-44.98667 108.03096,-44.98667 0,0 -112.03052,17.37778 -139.88998,-75.526541 z"
         id="path4"
         sodipodi:nodetypes="cscacc" />
    </g>
  </g>
  <g
     inkscape:groupmode="layer"
     id="layer2"
     inkscape:label="Capa 2"
     style="display:inline"
     transform="matrix(1.0204544,0,0,1.13636,-17.589966,9.5155045)">
    <g
       id="g14"
       transform="matrix(0.94023984,0,0,0.97574693,86.89062,-20.061046)"
       style="display:inline">
      <rect
         style="opacity:1;fill:#280b0b;fill-opacity:1;stroke-width:0.453788"
         id="rect11"
         width="29.955721"
         height="41.280441"
         x="99.730621"
         y="185.94466"
         ry="6.0725541" />
      <path
         style="opacity:1;fill:#003200;fill-opacity:1;stroke-width:0.212123"
         d="M 63.196993,90.106891 C 44.394322,88.773872 76.776487,31.738959 83.468764,31.416175 93.679136,30.923702 147.89926,72.13708 124.56769,82.075529 101.23613,92.013982 100.54968,92.755023 63.196993,90.106891 Z"
         id="path12"
         sodipodi:nodetypes="sszs" />
      <path
         style="opacity:1;fill:#003200;fill-opacity:1;stroke-width:0.289236"
         d="m 62.625845,141.92321 c -26.430293,-1.76313 19.088246,-77.200463 28.49536,-77.627395 14.352385,-0.65137 90.567835,53.859585 57.771415,67.004695 -32.79642,13.14512 -33.76133,14.12526 -86.266775,10.6227 z"
         id="path13"
         sodipodi:nodetypes="sszs" />
      <path
         style="opacity:1;fill:#003200;fill-opacity:1;stroke-width:0.332134"
         d="m 63.828106,196.53647 c -31.515374,-1.94978 22.760748,-85.37308 33.977748,-85.84521 17.113726,-0.72032 107.992726,59.56129 68.886406,74.09797 -39.10632,14.53669 -40.25688,15.62059 -102.864154,11.74724 z"
         id="path14"
         sodipodi:nodetypes="sszs" />
    </g>
    <g
       id="g8"
       transform="matrix(0.68028318,0,0,0.63620366,1.5923123,55.995762)"
       style="display:inline">
      <rect
         style="opacity:1;fill:#280b0b;fill-opacity:1;stroke-width:0.453788"
         id="rect8"
         width="29.955721"
         height="41.280441"
         x="99.730621"
         y="185.94466"
         ry="6.0725541" />
      <path
         style="opacity:1;fill:#007847;fill-opacity:1;stroke-width:0.212123"
         d="M 63.196993,90.106891 C 44.394322,88.773872 76.776487,31.738959 83.468764,31.416175 93.679136,30.923702 147.89926,72.13708 124.56769,82.075529 101.23613,92.013982 100.54968,92.755023 63.196993,90.106891 Z"
         id="path6"
         sodipodi:nodetypes="sszs" />
      <path
         style="opacity:1;fill:#007847;fill-opacity:1;stroke-width:0.289236"
         d="m 62.625845,141.92321 c -26.430293,-1.76313 19.088246,-77.200463 28.49536,-77.627395 14.352385,-0.65137 90.567835,53.859585 57.771415,67.004695 -32.79642,13.14512 -33.76133,14.12526 -86.266775,10.6227 z"
         id="path7"
         sodipodi:nodetypes="sszs" />
      <path
         style="opacity:1;fill:#007847;fill-opacity:1;stroke-width:0.332134"
         d="m 63.828106,196.53647 c -31.515374,-1.94978 22.760748,-85.37308 33.977748,-85.84521 17.113726,-0.72032 107.992726,59.56129 68.886406,74.09797 -39.10632,14.53669 -40.25688,15.62059 -102.864154,11.74724 z"
         id="path8"
         sodipodi:nodetypes="sszs" />
    </g>
    <g
       id="g11"
       transform="matrix(0.75797138,0,0,0.77985658,45.609782,26.276723)"
       style="display:inline">
      <rect
         style="opacity:1;fill:#280b0b;fill-opacity:1;stroke-width:0.453788"
         id="rect9"
         width="29.955721"
         height="41.280441"
         x="99.730621"
         y="185.94466"
         ry="6.0725541" />
      <path
         style="opacity:1;fill:#016500;fill-opacity:1;stroke-width:0.212123"
         d="M 63.196993,90.106891 C 44.394322,88.773872 76.776487,31.738959 83.468764,31.416175 93.679136,30.923702 147.89926,72.13708 124.56769,82.075529 101.23613,92.013982 100.54968,92.755023 63.196993,90.106891 Z"
         id="path9"
         sodipodi:nodetypes="sszs" />
      <path
         style="opacity:1;fill:#016500;fill-opacity:1;stroke-width:0.289236"
         d="m 62.625845,141.92321 c -26.430293,-1.76313 19.088246,-77.200463 28.49536,-77.627395 14.352385,-0.65137 90.567835,53.859585 57.771415,67.004695 -32.79642,13.14512 -33.76133,14.12526 -86.266775,10.6227 z"
         id="path10"
         sodipodi:nodetypes="sszs" />
      <path
         style="opacity:1;fill:#016500;fill-opacity:1;stroke-width:0.332134"
         d="m 63.828106,196.53647 c -31.515374,-1.94978 22.760748,-85.37308 33.977748,-85.84521 17.113726,-0.72032 107.992726,59.56129 68.886406,74.09797 -39.10632,14.53669 -40.25688,15.62059 -102.864154,11.74724 z"
         id="path11"
         sodipodi:nodetypes="sszs" />
    </g>
  </g>
</svg>
